<?xml version="1.0" standalone="no"?>
<!DOCTYPE svg PUBLIC "-//W3C//DTD SVG 20010904//EN"
 "http://www.w3.org/TR/2001/REC-SVG-20010904/DTD/svg10.dtd">
<svg version="1.0" xmlns="http://www.w3.org/2000/svg"
 width="600.000000pt" height="620.000000pt" viewBox="0 0 600.000000 620.000000"
 preserveAspectRatio="xMidYMid meet">
<metadata>
Created by potrace 1.16, written by Peter Selinger 2001-2019
</metadata>
<g transform="translate(0.000000,620.000000) scale(0.100000,-0.100000)"
fill="#000000" stroke="none">
<path d="M2327 4409 l-207 -209 -58 19 c-62 21 -162 38 -162 27 0 -4 18 -42
40 -86 22 -44 40 -84 40 -90 0 -6 -81 -92 -181 -192 -99 -101 -175 -184 -169
-186 7 -3 92 75 189 172 l177 177 87 -173 c91 -181 130 -249 125 -213 -2 12 2
19 9 18 7 -2 12 1 10 5 -3 12 119 132 127 125 3 -4 6 0 6 7 0 7 7 21 16 31 14
16 12 24 -27 100 -52 105 -95 161 -158 208 l-50 37 205 205 c180 179 224 231
197 228 -5 0 -101 -95 -216 -210z"/>
<path d="M1757 4182 c-167 -167 -205 -212 -179 -212 9 0 392 383 392 393 0 25
-46 -14 -213 -181z"/>
<path d="M4122 4235 c-29 -7 -68 -19 -85 -26 -46 -18 -118 -69 -112 -78 2 -5
-3 -15 -12 -22 -12 -10 -14 -10 -9 -1 15 25 -5 11 -42 -29 -20 -23 -52 -69
-69 -102 -36 -66 -38 -71 -24 -62 6 3 9 -3 8 -14 -1 -14 -5 -17 -12 -11 -8 7
-64 -93 -184 -330 l-173 -339 -22 42 c-25 50 -62 59 -114 27 -43 -26 -57 -63
-44 -113 7 -28 7 -36 -1 -28 -6 6 -13 43 -16 83 l-6 73 -37 3 c-20 2 -50 -4
-67 -12 l-30 -16 21 -36 c11 -19 24 -31 27 -26 10 16 50 24 68 13 16 -9 15
-10 -7 -11 -29 0 -50 -16 -50 -38 0 -22 142 -302 151 -297 4 3 11 0 15 -6 4
-8 3 -9 -4 -5 -16 10 -15 1 3 -34 18 -35 29 -39 20 -7 -5 17 -4 19 4 7 9 -12
21 -5 71 45 60 60 79 89 38 61 -25 -18 -138 -22 -138 -6 0 6 20 10 45 10 101
0 152 47 142 130 -6 51 6 68 19 28 12 -40 5 -88 -17 -121 l-22 -32 36 34 c35
33 50 61 25 45 -7 -5 -8 -3 -3 6 5 7 7 36 6 64 -1 31 4 59 12 70 13 18 15 12
16 -53 1 -45 8 -85 17 -104 l17 -31 19 24 c11 13 19 37 18 54 -1 17 -2 61 -1
99 l1 67 45 0 c45 0 45 0 45 35 0 31 -3 35 -25 35 -27 0 -34 15 -10 24 22 8
46 -4 54 -28 8 -19 9 -18 25 13 10 18 15 39 12 47 -3 8 -2 13 3 10 4 -3 13 6
20 20 14 31 14 37 1 29 -6 -3 -7 1 -3 10 4 12 8 13 13 5 4 -7 25 21 53 72 46
85 367 734 367 743 0 8 -41 4 -98 -10z"/>
<path d="M3454 4098 c-57 -56 -106 -110 -109 -119 -10 -29 12 -59 43 -59 22 0
50 22 135 109 59 59 107 112 107 117 0 21 -32 54 -52 54 -13 0 -60 -38 -124
-102z"/>
<path d="M2957 3703 l-99 -198 135 134 135 134 -31 64 c-17 34 -34 63 -37 63
-3 0 -49 -89 -103 -197z"/>
<path d="M4048 3505 c-207 -206 -382 -385 -389 -397 -7 -14 9 -3 42 27 92 83
742 745 733 745 -5 0 -179 -169 -386 -375z"/>
<path d="M3179 3611 c-28 -29 -33 -47 -6 -22 15 14 27 19 27 13 0 -6 -5 -14
-10 -17 -6 -4 -8 -10 -5 -14 2 -5 -9 -7 -25 -5 -34 4 -45 -9 -45 -51 0 -26 -4
-30 -32 -30 -17 0 -35 -4 -40 -8 -4 -5 -8 -23 -8 -40 0 -28 -4 -32 -30 -32
-40 0 -57 -13 -50 -35 3 -10 1 -21 -5 -25 -6 -3 -8 -11 -5 -16 3 -5 -1 -6 -10
-3 -14 6 -14 9 2 27 13 14 14 19 4 15 -8 -2 -21 -15 -30 -28 -9 -13 -11 -21
-5 -18 16 11 83 -50 91 -83 8 -29 8 -29 21 -8 8 12 9 18 3 14 -6 -3 -11 -3
-11 2 0 11 20 40 20 29 0 -5 11 3 25 18 13 14 31 26 40 26 8 0 15 3 15 8 0 4
26 5 58 2 l57 -5 -3 -35 -3 -34 23 21 c27 26 93 55 102 46 12 -12 6 8 -14 47
-11 22 -26 39 -33 37 -6 -1 -11 7 -10 17 2 30 -15 68 -29 60 -7 -4 -8 -3 -4 5
5 8 -44 127 -58 137 0 1 -8 -6 -17 -15z"/>
<path d="M3852 3147 c-254 -254 -458 -465 -454 -469 8 -8 922 898 923 915 0 5
-1 10 -3 12 -2 2 -212 -204 -466 -458z"/>
<path d="M2492 3384 c-46 -46 -90 -88 -99 -93 -15 -8 -12 -19 26 -97 l43 -87
29 31 c17 18 32 32 35 32 14 0 -23 -43 -90 -105 -84 -77 -100 -110 -66 -137
12 -10 26 -18 31 -18 4 0 31 21 59 47 49 45 51 50 46 86 -4 25 -3 36 4 32 5
-3 10 -17 10 -30 0 -12 7 -25 15 -29 9 -3 15 0 15 8 0 7 9 21 20 31 11 10 20
24 20 31 0 7 9 18 20 24 13 7 20 21 20 40 0 20 -6 31 -20 35 -11 3 -20 11 -20
16 0 6 -9 5 -22 -2 -17 -9 -13 -2 12 24 33 35 59 50 44 25 -4 -7 -3 -8 4 -4 6
4 9 13 5 21 -3 8 0 15 5 15 26 0 21 42 -15 114 -20 42 -40 76 -43 75 -3 0 -42
-38 -88 -85z"/>
<path d="M2786 3228 l-78 -82 4 -63 c3 -55 8 -68 36 -95 27 -28 39 -32 83 -33
51 0 52 1 76 44 30 58 29 67 -6 42 -53 -38 -111 -19 -111 35 0 25 1 25 83 23
l82 -2 17 34 c19 38 15 89 -9 127 -13 21 -68 52 -91 52 -5 0 -43 -37 -86 -82z"/>
<path d="M2691 2976 l-1 -49 -62 7 c-42 4 -67 12 -75 23 -27 36 -10 -6 35 -90
27 -48 52 -84 56 -80 4 4 4 0 1 -9 -6 -14 61 -165 70 -157 1 2 37 72 78 155
l76 151 -42 1 c-47 2 -113 41 -127 75 -7 17 -9 12 -9 -27z"/>
<path d="M1254 2181 c-59 -27 -88 -77 -82 -145 5 -60 29 -98 75 -121 61 -30
169 -10 194 36 8 16 6 19 -9 19 -11 0 -25 -7 -32 -14 -6 -8 -27 -20 -46 -26
-75 -25 -154 35 -154 117 0 39 5 50 39 84 32 32 46 39 77 39 22 0 52 -9 69
-20 17 -11 38 -20 49 -20 16 0 17 2 5 17 -19 22 -88 53 -119 53 -14 0 -43 -9
-66 -19z"/>
<path d="M1756 2183 c-3 -8 -6 -75 -6 -149 0 -112 2 -134 15 -134 12 0 15 13
15 55 0 54 0 55 30 55 23 0 37 -11 72 -54 24 -30 51 -55 61 -55 25 -1 22 5
-25 62 -30 35 -39 52 -29 55 53 18 71 110 28 150 -29 27 -152 39 -161 15z
m139 -38 c30 -29 31 -45 4 -79 -17 -22 -28 -26 -70 -26 l-49 0 0 58 c0 32 3
62 7 65 3 4 24 7 45 7 28 0 46 -7 63 -25z"/>
<path d="M2260 2048 l0 -148 85 0 c69 0 85 3 85 15 0 12 -14 15 -68 15 -38 0
-71 2 -73 4 -2 2 -2 32 -1 65 l4 61 64 0 c36 0 64 4 64 10 0 6 -28 10 -65 10
l-65 0 0 45 0 45 70 0 c39 0 70 4 70 9 0 16 -34 22 -104 19 l-66 -3 0 -147z"/>
<path d="M2843 2188 c-6 -7 -26 -49 -46 -93 -19 -44 -47 -106 -61 -137 -20
-46 -23 -58 -11 -58 8 0 27 26 42 58 l28 57 63 3 63 3 27 -61 c15 -33 32 -60
39 -60 7 0 13 4 13 9 0 18 -126 285 -136 288 -6 2 -16 -2 -21 -9z"/>
<path d="M4100 2192 c0 -2 28 -69 61 -148 44 -103 66 -144 78 -144 12 0 33 39
74 138 31 76 57 144 57 150 0 28 -22 8 -40 -35 -73 -174 -86 -203 -91 -203 -4
0 -30 56 -59 123 -32 77 -57 124 -66 124 -8 0 -14 -2 -14 -5z"/>
<path d="M4666 2190 c-2 -3 -4 -69 -5 -147 l-1 -143 85 0 c69 0 85 3 85 15 0
12 -14 15 -70 15 l-71 0 3 63 3 62 68 3 c37 2 67 7 67 12 0 5 -30 10 -67 12
l-68 3 0 40 0 40 68 3 c47 2 67 7 67 16 0 10 -20 13 -81 13 -44 -1 -82 -4 -83
-7z"/>
</g>
</svg>
